<?xml version="1.0" standalone="no"?>
<!DOCTYPE svg PUBLIC "-//W3C//DTD SVG 20010904//EN"
 "http://www.w3.org/TR/2001/REC-SVG-20010904/DTD/svg10.dtd">
<svg version="1.0" xmlns="http://www.w3.org/2000/svg"
 width="700.000000pt" height="700.000000pt" viewBox="0 0 700.000000 700.000000"
 preserveAspectRatio="xMidYMid meet">
<metadata>
Created by potrace 1.14, written by Peter Selinger 2001-2017
</metadata>
<g transform="translate(0.000000,700.000000) scale(0.100000,-0.100000)"
fill="#000000" stroke="none">
<path d="M3070 6749 c-365 -24 -702 -95 -880 -184 -192 -97 -306 -236 -361
-440 -19 -71 -22 -113 -26 -360 -4 -267 -3 -282 16 -312 45 -72 0 -68 748 -71
l674 -3 -3 -77 -3 -77 -1010 -5 c-1007 -5 -1010 -5 -1090 -28 -207 -58 -357
-145 -490 -284 -173 -180 -248 -343 -319 -694 -92 -450 -86 -794 20 -1274 96
-432 274 -702 549 -830 149 -70 171 -73 550 -77 318 -4 342 -3 374 15 70 38
71 42 71 460 0 472 11 537 123 711 82 126 191 221 330 286 153 72 99 69 1042
75 770 5 856 7 909 23 162 48 256 101 373 211 97 91 171 198 213 309 62 159
61 144 58 1038 l-3 814 -24 70 c-92 274 -301 486 -584 593 -250 94 -789 142
-1257 111z m-405 -473 c103 -47 162 -148 153 -259 -12 -141 -116 -239 -253
-239 -79 0 -138 26 -192 85 -188 204 42 530 292 413z"/>
<path d="M5170 4978 c-70 -47 -70 -49 -70 -469 0 -344 -2 -382 -20 -455 -70
-272 -270 -483 -545 -575 l-70 -23 -855 -6 c-961 -7 -893 -2 -1067 -85 -224
-109 -396 -316 -466 -562 -21 -77 -22 -89 -25 -862 -2 -651 0 -797 12 -860 69
-364 367 -610 911 -751 247 -64 345 -75 645 -75 243 0 290 3 405 24 459 81
759 213 957 417 162 169 212 328 206 669 -3 191 -3 194 -28 220 -53 57 -24 55
-745 55 l-665 0 0 85 0 84 1073 4 c1180 4 1135 1 1273 66 83 39 128 70 198
139 111 108 214 294 301 542 174 502 187 933 44 1540 -42 181 -83 300 -144
425 -117 237 -276 380 -497 447 -68 20 -97 22 -433 25 l-360 4 -35 -23z m722
-259 c98 -20 170 -63 246 -144 110 -118 174 -263 241 -545 125 -526 118 -918
-23 -1334 -141 -414 -270 -574 -491 -606 -43 -6 -503 -10 -1184 -10 l-1113 0
-39 -39 -39 -39 0 -268 c0 -252 1 -271 20 -302 39 -63 22 -62 750 -62 l660 0
0 -108 c0 -65 -6 -131 -15 -167 -62 -236 -298 -404 -706 -504 -459 -112 -859
-100 -1293 39 -280 90 -460 221 -544 397 l-37 78 0 800 0 800 23 65 c66 182
202 319 387 387 47 17 108 18 900 23 l850 6 98 26 c388 106 687 423 767 816
17 88 20 137 20 401 l0 301 235 0 c132 0 257 -5 287 -11z"/>
</g>
</svg>
